<?xml version="1.0" encoding="utf-8"?>
<!-- Svg Vector Icons : http://www.onlinewebfonts.com/icon -->
<!DOCTYPE svg PUBLIC "-//W3C//DTD SVG 1.1//EN" "http://www.w3.org/Graphics/SVG/1.1/DTD/svg11.dtd">
<svg version="1.1" xmlns="http://www.w3.org/2000/svg" xmlns:xlink="http://www.w3.org/1999/xlink" x="0px" y="0px" viewBox="0 0 256 256" enable-background="new 0 0 256 256" xml:space="preserve">
<metadata> Svg Vector Icons : http://www.onlinewebfonts.com/icon </metadata>
<g><g><path fill="#000000" d="M246,128c0,65.2-52.8,118-118,118c-65.2,0-118-52.8-118-118C10,62.8,62.8,10,128,10C193.2,10,246,62.8,246,128z M127.4,25.8C71,25.8,25.3,71.6,25.3,128c0,56.4,45.7,102.2,102.2,102.2c56.4,0,102.2-45.7,102.2-102.2C229.6,71.6,183.8,25.8,127.4,25.8z"/><path fill="#000000" d="M128,79.1l-78.5,31.7l77.9,37.6l63.4-27.4V140c0,0-13.2,14.4,2.6,21.4c3.2,0,16.1-5,6.7-21.4c0-6.2-1.5-22-1.5-22l3.5-2.4L128,79.1z"/><path fill="#000000" d="M86.9,141.7l41,24.3l41.2-27l5.1,5.9l-46.3,30.8l-45.7-27.5L86.9,141.7z"/></g></g>
</svg>