<?xml version="1.0" encoding="utf-8"?>
<!-- Svg Vector Icons : http://www.onlinewebfonts.com/icon -->
<!DOCTYPE svg PUBLIC "-//W3C//DTD SVG 1.1//EN" "http://www.w3.org/Graphics/SVG/1.1/DTD/svg11.dtd">
<svg version="1.1" xmlns="http://www.w3.org/2000/svg" xmlns:xlink="http://www.w3.org/1999/xlink" x="0px" y="0px" viewBox="0 0 256 256" enable-background="new 0 0 256 256" xml:space="preserve">
<metadata> Svg Vector Icons : http://www.onlinewebfonts.com/icon </metadata>
<g><g><g><path fill="#000000" d="M96.4,32.1c-5,0.7-9.3,4.1-11.5,8.7c-0.9,1.9-1,3.1-1.2,11.3l-0.2,9.1H62.3c-11.7,0-23.2,0.2-25.4,0.5c-7.5,0.8-13.2,3.4-18.4,8.5c-3.4,3.4-5.5,6.7-7.2,11.5L10,85.4v57.3V200l1.4,3.9c1.7,4.7,3.9,8.2,7.3,11.6c4.9,4.8,10.7,7.5,18.1,8.3c5.4,0.6,176.8,0.6,182.2,0c12.1-1.2,21.4-8.5,25.4-19.9l1.4-3.9v-57.3V85.4l-1.4-3.9c-0.7-2.2-2.2-5.1-3.1-6.6c-2.6-3.9-7.5-8.3-11.5-10.3c-6.6-3.2-6.2-3.2-33.3-3.4l-24.3-0.2l-0.1-9.1c-0.1-8.9-0.2-9.1-1.4-11.7c-1.6-3.2-5-6.4-8.1-7.6c-2-0.8-4.5-0.8-33.1-0.9C112.6,31.8,97.7,31.9,96.4,32.1z M157.6,54v7.2H128H98.4V54v-7.2H128h29.6V54z"/></g></g></g>
</svg>